<?xml version="1.0"?>
<svg xmlns="http://www.w3.org/2000/svg" xmlns:xlink="http://www.w3.org/1999/xlink" xmlns:svgjs="http://svgjs.com/svgjs" version="1.1" width="512" height="512" x="0" y="0" viewBox="0 0 512.002 512.002" style="enable-background:new 0 0 512 512" xml:space="preserve" class=""><g><path xmlns="http://www.w3.org/2000/svg" d="m414.885 256.219c3.397-15.12 5.116-30.62 5.116-46.218 0-115.795-94.206-210.001-210.001-210.001-39.482 0-77.965 11.03-111.288 31.899-4.681 2.932-6.099 9.103-3.168 13.783 2.932 4.682 9.104 6.101 13.783 3.168 30.138-18.873 64.95-28.85 100.673-28.85 104.767 0 190.001 85.234 190.001 190.001 0 14.409-1.643 28.718-4.843 42.663-4.327-.437-8.716-.662-13.156-.662-2.45 0-4.883.074-7.3.209 3.515-13.734 5.299-27.872 5.299-42.21 0-93.739-76.262-170.001-170.001-170.001-93.738 0-170 76.262-170 170.001 0 93.738 76.262 170 170 170 14.337 0 28.475-1.784 42.211-5.3-.135 2.417-.209 4.85-.209 7.301 0 4.44.225 8.829.662 13.156-13.943 3.2-28.252 4.843-42.664 4.843-104.767 0-190-85.233-190-190 0-35.72 9.978-70.534 28.854-100.682 2.931-4.681 1.513-10.852-3.169-13.782-4.682-2.933-10.853-1.512-13.782 3.169-20.872 33.332-31.903 71.817-31.903 111.295 0 115.795 94.205 210 210 210 15.601 0 31.102-1.719 46.219-5.116 14.601 55.813 65.457 97.117 125.783 97.117 71.683 0 130-58.317 130-130 0-60.326-41.305-111.182-97.117-125.783zm51.908 195.783h-169.582c-5.081-6.143-9.508-12.846-13.175-20h195.931c-3.666 7.154-8.093 13.857-13.174 20zm-169.583-139.999h169.583c5.081 6.143 9.508 12.845 13.174 19.999h-195.93c3.666-7.154 8.093-13.856 13.173-19.999zm-21.05 39.999h211.683c1.83 6.447 3.077 13.134 3.699 20h-219.081c.622-6.866 1.87-13.554 3.699-20zm0 60c-1.83-6.447-3.077-13.134-3.699-20h219.081c-.622 6.866-1.869 13.553-3.699 20zm169.015-119.999h-126.346c17.889-12.594 39.681-20.001 63.173-20.001s45.284 7.406 63.173 20.001zm-148.329-8.149c-9.675-5.762-19.85-10.504-30.38-14.211 1.958-15.99 3.107-32.767 3.433-49.642h89.771c-.791 12.015-3.013 23.82-6.632 35.257-21.146 4.83-40.346 14.83-56.192 28.596zm-236.505-63.853h89.759c.325 16.842 1.47 33.586 3.422 49.548-21.783 7.642-41.866 19.747-59.177 35.869-19.455-23.539-31.866-53.097-34.004-85.417zm34.005-105.419c17.312 16.127 37.389 28.237 59.175 35.877-1.951 15.96-3.096 32.702-3.421 49.542h-89.759c2.138-32.321 14.55-61.879 34.005-85.419zm265.314 85.419h-89.76c-.325-16.842-1.47-33.586-3.421-49.548 21.784-7.641 41.866-19.747 59.178-35.87 19.454 23.54 31.864 53.097 34.003 85.418zm-149.66-40.003c12.624 0 25.013-1.368 37.018-4.012 1.608 13.992 2.584 28.783 2.881 44.015h-79.798c.298-15.231 1.274-30.021 2.881-44.012 12.002 2.642 24.391 4.009 37.018 4.009zm-34.219-23.879c2.211-13.109 5.028-25.245 8.407-36.037 8.6-27.463 19.161-39.756 25.813-39.756s17.213 12.293 25.813 39.756c3.379 10.791 6.195 22.925 8.406 36.032-11.075 2.564-22.534 3.884-34.219 3.884-11.688 0-23.148-1.317-34.22-3.879zm87.715-5.884c-4.719-27.031-11.984-50.61-21.708-66.834 26.704 5.785 50.778 18.699 70.127 36.647-14.269 13.257-30.663 23.426-48.419 30.187zm-106.993.006c-17.757-6.76-34.147-16.933-48.417-30.194 19.349-17.947 43.422-30.861 70.125-36.646-9.724 16.226-16.989 39.806-21.708 66.84zm.001 159.525c4.719 27.031 11.984 50.609 21.708 66.833-26.703-5.785-50.778-18.699-70.127-36.647 14.269-13.256 30.664-23.425 48.419-30.186zm53.496 69.909c-6.651 0-17.213-12.293-25.813-39.756-3.379-10.791-6.195-22.924-8.406-36.031 11.075-2.565 22.535-3.885 34.219-3.885 11.611 0 23.073 1.349 34.208 3.947-2.209 13.083-5.022 25.195-8.395 35.969-8.6 27.463-19.162 39.756-25.813 39.756zm0-99.672c-12.623 0-25.013 1.368-37.018 4.012-1.608-13.991-2.584-28.783-2.881-44.014h79.798c-.298 15.248-1.276 30.054-2.887 44.058-12.066-2.681-24.466-4.056-37.012-4.056zm31.774 96.621c9.723-16.211 16.989-39.773 21.71-66.79 6.474 2.471 12.784 5.391 18.886 8.759-13 15.502-22.458 34.068-27.113 54.444-4.441 1.406-8.938 2.605-13.483 3.587zm77.056 115.378h126.344c-17.889 12.594-39.681 20-63.172 20s-45.283-7.406-63.172-20z" fill="#ffffff" data-original="#000000" style="" class=""/><path xmlns="http://www.w3.org/2000/svg" d="m68.579 78.579c2.56 0 5.118-.977 7.071-2.929l.005-.005c3.905-3.905 3.902-10.234-.003-14.14s-10.239-3.902-14.145.002c-3.905 3.905-3.905 10.237 0 14.143 1.954 1.953 4.513 2.929 7.072 2.929z" fill="#ffffff" data-original="#000000" style="" class=""/></g></svg>
